<svg xmlns="http://www.w3.org/2000/svg" xmlns:xlink="http://www.w3.org/1999/xlink" aria-hidden="true" role="img" class="iconify iconify--logos" width="35.93" height="32" preserveAspectRatio="xMidYMid meet" viewBox="0 0 256 228"><defs><linearGradient id="IconifyId1813088fe1fbc01fb466" x1="-2.778%" x2="100%" y1="32%" y2="67.453%"><stop offset="0%" stop-color="#41D1FF"></stop><stop offset="100%" stop-color="#BD34FE"></stop></linearGradient><linearGradient id="IconifyId1813088fe1fbc01fb467" x1="43.376%" x2="50.316%" y1="2.242%" y2="89.03%"><stop offset="0%" stop-color="#FFEA83"></stop><stop offset="8.333%" stop-color="#FFDD35"></stop><stop offset="100%" stop-color="#FFA800"></stop></linearGradient></defs><path fill="url(#IconifyId1813088fe1fbc01fb466)" d="M210.483 73.824a171.49 171.49 0 0 0-8.24-2.597c.465-1.9.893-3.777 1.273-5.621c6.238-30.281 2.16-54.676-11.769-62.708c-13.355-7.7-35.196.329-57.254 19.526a171.23 171.23 0 0 0-6.375 5.848a155.866 155.866 0 0 0-4.241-3.917C100.759 3.829 77.587-4.822 64.049 3.233C50.025 11.458 46.168 35.89 52.5 66.597a170.974 170.974 0 0 0 1.892 6.48c-3.28.932-6.445 1.924-9.474 2.98C17.309 83.498 0 98.307 0 113.668c0 15.865 18.582 31.778 46.812 41.427a145.52 145.52 0 0 0 6.921 2.165a167.467 167.467 0 0 0-2.01 7.138c-6.453 30.886-2.6 55.16 11.637 62.815c13.578 7.332 35.386-.22 57.116-18.695a145.567 145.567 0 0 0 5.342-4.923a168.128 168.128 0 0 0 6.92 6.314c21.758 18.164 44.531 25.848 57.82 18.535c13.771-7.586 17.651-32.05 11.268-62.893a167.248 167.248 0 0 0-1.638-5.814c2.378-.657 4.678-1.326 6.88-2.01c28.72-9.806 47.631-25.638 47.631-41.514c0-15.362-17.309-30.17-43.517-39.844Zm-6.365 70.984c-1.98.68-4.068 1.337-6.257 1.972a184.9 184.9 0 0 1 2.028-7.208c5.523-26.436 2.33-47.716-9.823-54.607c-11.48-6.614-29.882 1.455-49.823 18.483a184.87 184.87 0 0 1-5.708 5.246a167.09 167.09 0 0 1-6.21-5.729c-19.63-16.727-37.776-24.785-49.07-18.223c-12.096 6.987-15.434 28.492-9.957 54.806a167.18 167.18 0 0 1 1.748 6.213c-2.42.69-4.748 1.358-6.963 2.004C25.786 139.367 9.41 125.243 9.41 113.668c0-11.332 16.376-25.699 41.006-34.279a165.63 165.63 0 0 1 6.437-2.165a184.69 184.69 0 0 1-1.9-6.735c-5.4-25.854-2.172-46.633 9.68-53.602c11.207-6.614 28.847.806 48.162 17.477a165.68 165.68 0 0 1 5.708 5.246a184.9 184.9 0 0 1 6.21-5.729c19.315-16.671 36.955-24.091 48.162-17.477c11.852 6.969 15.08 27.748 9.68 53.602a184.69 184.69 0 0 1-1.9 6.735a165.63 165.63 0 0 1 6.437 2.165c24.63 8.58 41.006 22.947 41.006 34.279c0 11.575-16.376 25.699-41.006 34.279Z"></path><path fill="url(#IconifyId1813088fe1fbc01fb467)" d="M128 152.137c-13.254 0-24-10.746-24-24s10.746-24 24-24s24 10.746 24 24s-10.746 24-24 24Zm0-40c-8.837 0-16 7.163-16 16s7.163 16 16 16s16-7.163 16-16s-7.163-16-16-16Z"></path><path fill="url(#IconifyId1813088fe1fbc01fb467)" d="M128 164.137c-19.882 0-36-16.118-36-36s16.118-36 36-36s36 16.118 36 36s-16.118 36-36 36Zm0-64c-15.464 0-28 12.536-28 28s12.536 28 28 28s28-12.536 28-28s-12.536-28-28-28Z"></path></svg>
